<?xml version="1.0" standalone="no"?>
<!DOCTYPE svg PUBLIC "-//W3C//DTD SVG 20010904//EN"
 "http://www.w3.org/TR/2001/REC-SVG-20010904/DTD/svg10.dtd">
<svg version="1.0" xmlns="http://www.w3.org/2000/svg"
 width="96.000000pt" height="96.000000pt" viewBox="0 0 96.000000 96.000000"
 preserveAspectRatio="xMidYMid meet">

<g transform="translate(0.000000,96.000000) scale(0.100000,-0.100000)"
fill="#000000" stroke="none">
<path d="M102 700 c2 -5 42 -59 91 -119 l87 -110 0 -112 0 -113 40 39 c40 39
40 40 40 115 l0 75 61 78 60 77 124 0 c99 0 127 -3 139 -16 19 -18 20 -28 6
-55 -10 -17 -22 -19 -140 -19 l-130 0 0 -147 0 -147 40 39 c39 38 40 41 40
107 l0 68 44 0 c44 0 45 -1 103 -80 l58 -79 48 -1 c54 0 55 -3 -8 80 -60 79
-59 77 -25 95 82 43 79 185 -5 221 -25 10 -77 14 -184 14 l-150 0 -58 -75
c-31 -41 -61 -75 -65 -75 -4 0 -33 34 -65 75 l-57 75 -49 0 c-27 0 -47 -4 -45
-10z"/>
</g>
</svg>
