<svg version="1.1" id="Layer_1" xmlns="http://www.w3.org/2000/svg" xmlns:xlink="http://www.w3.org/1999/xlink" x="0px" y="0px"
	 width="100%" viewBox="0 0 528 208" enable-background="new 0 0 528 208" xml:space="preserve">
<path fill="#000000" opacity="1.000000" stroke="none" 
	d="
M166.437500,209.000000 
	C167.916794,202.983124 172.941681,198.983841 175.923401,193.586670 
	C183.873108,179.197006 192.191284,164.998215 202.057526,151.787506 
	C202.323822,151.430954 202.342133,150.889175 202.567627,150.122482 
	C197.036194,148.642746 191.939194,150.782608 186.882584,151.678299 
	C169.736862,154.715347 152.612228,157.938690 135.607712,161.674271 
	C128.303925,163.278809 121.187523,165.585175 113.602684,165.370819 
	C110.983688,165.296814 107.617126,165.873337 107.096985,162.404404 
	C106.646095,159.397369 109.998657,159.263062 112.002548,158.397064 
	C135.422119,148.276367 160.141098,142.279938 184.661667,135.674255 
	C187.798386,134.829239 190.782593,132.857071 194.379730,134.191559 
	C185.702240,139.208435 175.858231,140.430145 166.532974,143.292480 
	C152.838837,147.495834 138.746780,150.565674 126.001900,157.977951 
	C127.623688,159.355759 129.131546,158.824142 130.531860,158.589005 
	C154.598175,154.548325 178.665268,150.511429 202.714508,146.370911 
	C207.630051,145.524612 216.524536,135.026215 217.147522,129.673630 
	C214.402527,128.947250 211.981689,130.293625 209.421021,130.807800 
	C204.612961,131.773224 200.369370,135.329346 195.057053,133.956818 
	C196.418793,131.758438 198.780563,131.296936 200.982712,130.614914 
	C203.993408,129.682465 206.983368,128.481827 210.073975,128.044342 
	C221.764664,126.389519 228.862473,119.371437 233.775620,109.137047 
	C236.719513,103.004745 240.477448,97.263229 244.023148,91.078003 
	C239.858490,89.452675 235.714584,89.801033 231.765228,89.068817 
	C221.350067,87.137863 212.365829,82.370377 204.625107,75.156998 
	C192.924530,64.253571 181.180954,53.390472 173.978638,38.719707 
	C173.237061,37.209145 171.496262,35.232166 173.815323,33.933052 
	C175.958450,32.732510 177.076035,34.967781 178.068100,36.406162 
	C181.184891,40.925171 184.359467,45.420456 187.183914,50.121830 
	C194.634659,62.523746 204.905838,72.050751 216.928513,79.830841 
	C224.821014,84.938217 233.691589,85.943855 242.802032,85.598656 
	C246.292053,85.466415 248.655121,83.310501 250.173325,80.337204 
	C251.816238,77.119652 253.460388,76.454407 255.673874,80.739059 
	C269.749603,69.571259 277.555084,55.664505 279.011139,37.032047 
	C268.718842,49.442284 263.553619,63.979702 254.770111,76.618477 
	C253.015381,74.355316 253.876770,73.159599 254.459381,72.028275 
	C261.841278,57.694016 269.247253,43.372108 276.676147,29.062130 
	C277.207672,28.038256 277.859253,27.032518 278.642792,26.193758 
	C279.896545,24.851624 281.353912,23.380495 283.371521,24.373409 
	C285.271667,25.308521 284.668457,27.189466 284.444305,28.832859 
	C283.538696,35.472248 282.644806,42.113239 282.217896,49.005764 
	C286.951263,44.728436 290.810089,39.804893 295.921051,36.127136 
	C306.660889,28.398977 318.556580,26.631834 331.383057,28.089186 
	C337.057831,28.733957 342.495026,29.942728 347.614136,32.348427 
	C355.814606,36.202171 357.695496,43.487751 352.248749,50.754723 
	C345.670654,59.531178 336.861267,65.899071 328.043579,72.178017 
	C304.385742,89.024376 279.076752,102.988297 252.640640,114.935539 
	C249.458542,116.373619 247.024292,118.282211 245.352371,121.382996 
	C242.220215,127.191971 238.898438,132.898712 235.278381,139.316620 
	C245.139389,138.353561 253.873718,135.766586 262.700562,133.767242 
	C290.596680,127.448555 318.371002,120.635551 345.897675,112.833069 
	C380.652100,102.981857 414.833862,91.384773 448.850098,79.275589 
	C449.783051,78.943474 451.202637,78.636192 451.460175,77.960754 
	C453.568787,72.431168 458.991669,72.616806 463.270691,71.100769 
	C471.571594,68.159813 480.012573,65.610298 488.421509,62.981785 
	C490.092438,62.459465 491.809143,61.659298 493.670380,62.288048 
	C494.474609,64.191612 493.115967,64.586205 491.913666,65.210564 
	C477.083344,72.911926 461.034882,77.462425 445.440552,83.179672 
	C404.805573,98.077354 363.559875,111.097900 321.704590,122.059547 
	C294.730408,129.123917 267.630615,135.832977 240.203384,140.930084 
	C233.397705,142.194870 231.188644,146.861938 228.209442,151.569031 
	C224.771347,157.001175 222.895752,163.471313 217.287003,167.827515 
	C216.991898,167.990662 217.013535,168.005112 217.013535,168.005112 
	C216.445343,165.205994 218.349152,163.303040 219.576675,161.203232 
	C222.829590,155.638748 226.541382,150.323883 228.874817,144.097626 
	C223.542694,143.617661 220.448135,145.945831 218.008759,150.370468 
	C209.752274,165.346436 201.159348,180.136612 192.761093,195.035049 
	C191.812592,196.717682 191.284241,198.637161 191.262817,200.927338 
	C196.067093,195.129227 200.871368,189.331116 205.675659,183.533005 
	C206.095123,183.862488 206.514603,184.191956 206.934067,184.521439 
	C202.611969,193.289398 195.549332,200.245499 190.122299,208.681900 
	C186.638718,209.000000 183.277420,209.000000 179.649750,208.724213 
	C183.246796,202.267258 187.213577,196.147659 190.944366,189.887436 
	C194.598038,183.756577 197.622543,177.217239 201.631516,171.340378 
	C206.325378,164.459473 210.350296,157.219116 214.549911,150.064255 
	C215.113464,149.104126 216.015472,148.065292 214.439606,147.066925 
	C212.523407,146.898102 212.074844,148.630600 211.305115,149.766342 
	C200.790665,165.280273 190.269577,180.790436 179.894257,196.397354 
	C177.248077,200.377792 174.001770,204.094025 173.000000,209.000000 
	C170.958328,209.000000 168.916672,209.000000 166.437500,209.000000 
M278.979431,59.497253 
	C271.575592,77.040100 261.724609,93.328171 252.142502,109.726921 
	C254.796204,111.337463 256.115540,109.936882 257.537811,109.268143 
	C278.037964,99.628983 297.667847,88.442322 316.412659,75.736076 
	C327.566864,68.175148 338.537048,60.271088 347.028442,49.640469 
	C352.285034,43.059593 350.998383,38.554554 343.199219,35.379845 
	C331.472443,30.606365 319.235321,30.940796 307.509430,34.580898 
	C294.915375,38.490505 286.713318,48.418083 278.979431,59.497253 
M231.002197,140.408707 
	C235.703384,134.476135 238.425598,127.502769 241.639664,120.716003 
	C230.507538,123.463081 229.471603,134.378036 223.061539,141.920135 
	C226.184433,141.476562 228.386032,141.762146 231.002197,140.408707 
M244.265106,115.585785 
	C250.835068,108.753868 253.907928,99.780136 258.764252,91.898613 
	C259.720825,90.346146 260.719818,88.800919 261.477936,87.150703 
	C262.160583,85.664894 262.539673,84.039635 263.052643,82.475883 
	C254.802200,93.196945 246.837509,103.926277 240.278244,115.311180 
	C241.900238,117.008949 242.759567,116.186386 244.265106,115.585785 
M226.241470,127.122231 
	C222.762405,132.399857 218.761475,137.365051 216.503571,143.411026 
	C222.232162,139.216187 225.759720,133.376785 228.460571,127.059784 
	C229.032822,125.721329 227.506836,125.876976 226.241470,127.122231 
M251.260712,87.825424 
	C246.697296,89.484116 245.992065,93.669212 244.927628,97.631104 
	C247.555939,94.611000 251.883041,92.811668 251.260712,87.825424 
z"/>
<path fill="#000000" opacity="1.000000" stroke="none" 
	d="
M216.981506,167.981232 
	C216.350342,174.054794 212.239517,177.803970 207.979645,181.461288 
	C209.747604,176.403381 212.018478,171.676559 216.705856,168.154327 
	C217.013535,168.005112 216.991898,167.990662 216.981506,167.981232 
z"/>
</svg>